<svg width="48" height="40" viewBox="0 0 48 40" fill="none" xmlns="http://www.w3.org/2000/svg">
<rect width="48" height="40" rx="20" fill="#F5F5F5"/>
<path d="M16.125 19.9766C16.125 20.1489 16.1589 20.3196 16.2249 20.4788C16.2909 20.6381 16.3875 20.7828 16.5094 20.9046C16.6313 21.0265 16.776 21.1232 16.9352 21.1892C17.0945 21.2551 17.2651 21.2891 17.4375 21.2891C17.6099 21.2891 17.7805 21.2551 17.9398 21.1892C18.099 21.1232 18.2437 21.0265 18.3656 20.9046C18.4875 20.7828 18.5841 20.6381 18.6501 20.4788C18.7161 20.3196 18.75 20.1489 18.75 19.9766C18.75 19.8042 18.7161 19.6335 18.6501 19.4743C18.5841 19.3151 18.4875 19.1704 18.3656 19.0485C18.2437 18.9266 18.099 18.8299 17.9398 18.764C17.7805 18.698 17.6099 18.6641 17.4375 18.6641C17.2651 18.6641 17.0945 18.698 16.9352 18.764C16.776 18.8299 16.6313 18.9266 16.5094 19.0485C16.3875 19.1704 16.2909 19.3151 16.2249 19.4743C16.1589 19.6335 16.125 19.8042 16.125 19.9766ZM22.6875 19.9766C22.6875 20.3247 22.8258 20.6585 23.0719 20.9046C23.3181 21.1508 23.6519 21.2891 24 21.2891C24.3481 21.2891 24.6819 21.1508 24.9281 20.9046C25.1742 20.6585 25.3125 20.3247 25.3125 19.9766C25.3125 19.6285 25.1742 19.2946 24.9281 19.0485C24.6819 18.8023 24.3481 18.6641 24 18.6641C23.6519 18.6641 23.3181 18.8023 23.0719 19.0485C22.8258 19.2946 22.6875 19.6285 22.6875 19.9766ZM29.25 19.9766C29.25 20.3247 29.3883 20.6585 29.6344 20.9046C29.8806 21.1508 30.2144 21.2891 30.5625 21.2891C30.9106 21.2891 31.2444 21.1508 31.4906 20.9046C31.7367 20.6585 31.875 20.3247 31.875 19.9766C31.875 19.6285 31.7367 19.2946 31.4906 19.0485C31.2444 18.8023 30.9106 18.6641 30.5625 18.6641C30.2144 18.6641 29.8806 18.8023 29.6344 19.0485C29.3883 19.2946 29.25 19.6285 29.25 19.9766Z" fill="#595959"/>
</svg>
